<svg width="101" height="16" viewBox="0 0 101 16" fill="none" xmlns="http://www.w3.org/2000/svg">
<path d="M0.150335 15.6349C0.250559 15.7351 0.379418 15.7852 0.536913 15.7852H3.30738C3.46488 15.7852 3.59374 15.7351 3.69396 15.6349C3.79418 15.5347 3.84429 15.4058 3.84429 15.2483V10.4805H6.05638L8.5047 15.2054C8.56197 15.3199 8.65503 15.4488 8.78389 15.5919C8.91275 15.7208 9.1132 15.7852 9.38523 15.7852H12.2201C12.349 15.7852 12.4564 15.7423 12.5423 15.6564C12.6425 15.5562 12.6926 15.4488 12.6926 15.3342C12.6926 15.2626 12.6711 15.1839 12.6282 15.098L9.66443 9.81476C10.4662 9.45682 11.1105 8.92707 11.5973 8.2255C12.0984 7.52394 12.349 6.66488 12.349 5.64832C12.349 4.0877 11.8121 2.88501 10.7383 2.04027C9.67875 1.18121 8.2255 0.751677 6.37852 0.751677H0.536913C0.379418 0.751677 0.250559 0.801789 0.150335 0.902013C0.0501116 1.00224 0 1.1311 0 1.28859V15.2483C0 15.4058 0.0501116 15.5347 0.150335 15.6349Z" fill="white"/>
<path fill-rule="evenodd" clip-rule="evenodd" d="M15.5827 14.6255C16.585 15.5418 17.9308 16 19.6203 16C20.4937 16 21.2597 15.8926 21.9183 15.6779C22.5769 15.4631 23.121 15.1911 23.5505 14.8617C23.9943 14.5181 24.3308 14.1745 24.5599 13.8309C24.789 13.4872 24.9107 13.1937 24.925 12.9503C24.9393 12.8072 24.8964 12.6998 24.7961 12.6282C24.7102 12.5423 24.5957 12.4993 24.4525 12.4993H21.7894C21.6176 12.4993 21.4888 12.5208 21.4029 12.5638C21.3313 12.5924 21.231 12.6783 21.1022 12.8215C21.0306 12.9074 20.9304 13.0148 20.8015 13.1436C20.6726 13.2582 20.508 13.3655 20.3075 13.4658C20.1214 13.5517 19.8852 13.5946 19.5988 13.5946C19.2122 13.5946 18.8829 13.4944 18.6109 13.294C18.3389 13.0935 18.1384 12.8215 18.0096 12.4779C17.8807 12.1342 17.8091 11.7548 17.7948 11.3396V11.1893H24.6673C24.8105 11.1893 24.9322 11.1391 25.0324 11.0389C25.1469 10.9387 25.2042 10.8098 25.2042 10.6523V10.1369C25.2042 9.03445 24.9966 8.05369 24.5814 7.19463C24.1662 6.33557 23.5433 5.65548 22.7129 5.15436C21.8968 4.65324 20.8588 4.40268 19.5988 4.40268C18.4964 4.40268 17.5299 4.61745 16.6995 5.04698C15.8834 5.46219 15.2391 6.07785 14.7666 6.89396C14.3084 7.69575 14.0579 8.66219 14.0149 9.79329V10.545C14.0579 12.349 14.5805 13.7092 15.5827 14.6255ZM21.4243 9.06309H17.7948V9.02013C17.7948 8.56197 17.8664 8.16107 18.0096 7.81745C18.1527 7.47383 18.3532 7.20895 18.6109 7.02282C18.8829 6.83669 19.2122 6.74362 19.5988 6.74362C19.9854 6.74362 20.3147 6.83669 20.5867 7.02282C20.8731 7.20895 21.0807 7.47383 21.2096 7.81745C21.3527 8.16107 21.4243 8.56197 21.4243 9.02013V9.06309Z" fill="white"/>
<path d="M27.3679 15.6349C27.4682 15.7351 27.597 15.7852 27.7545 15.7852H30.2458C30.389 15.7852 30.5107 15.7351 30.6109 15.6349C30.7254 15.5347 30.7827 15.4058 30.7827 15.2483V11.3396L34.176 15.4201C34.2619 15.506 34.355 15.5919 34.4552 15.6779C34.5554 15.7494 34.7129 15.7852 34.9277 15.7852H37.87C38.0131 15.7852 38.1277 15.7423 38.2136 15.6564C38.3138 15.5562 38.3639 15.4416 38.3639 15.3128C38.3639 15.1982 38.3066 15.0837 38.1921 14.9691L33.7894 9.62148L37.6552 5.45503C37.7125 5.41208 37.7554 5.35481 37.7841 5.28322C37.8127 5.21163 37.827 5.1472 37.827 5.08993C37.827 4.96107 37.7769 4.85369 37.6767 4.76779C37.5908 4.66756 37.4834 4.61745 37.3545 4.61745H34.4767C34.2905 4.61745 34.1474 4.65324 34.0471 4.72483C33.9469 4.79642 33.8539 4.88233 33.7679 4.98255L30.7827 8.26846V1.07382C30.7827 0.91633 30.7254 0.787472 30.6109 0.687248C30.5107 0.587024 30.389 0.536912 30.2458 0.536912H27.7545C27.597 0.536912 27.4682 0.587024 27.3679 0.687248C27.2677 0.787472 27.2176 0.91633 27.2176 1.07382V15.2483C27.2176 15.4058 27.2677 15.5347 27.3679 15.6349Z" fill="white"/>
<path fill-rule="evenodd" clip-rule="evenodd" d="M40.796 15.5705C41.4116 15.8568 42.106 16 42.8792 16C43.4376 16 43.9244 15.9284 44.3396 15.7852C44.7691 15.6564 45.1414 15.4774 45.4564 15.2483C45.7714 15.0192 46.0219 14.7687 46.208 14.4966V15.2483C46.208 15.4058 46.2582 15.5347 46.3584 15.6349C46.4586 15.7351 46.5875 15.7852 46.745 15.7852H49.2362C49.3794 15.7852 49.5011 15.7351 49.6013 15.6349C49.7159 15.5347 49.7731 15.4058 49.7731 15.2483V8.71946C49.7731 8.08949 49.6729 7.51678 49.4725 7.00134C49.272 6.47159 48.9642 6.01342 48.549 5.62685C48.1481 5.24027 47.6183 4.9396 46.9597 4.72483C46.3011 4.51007 45.5065 4.40268 44.5758 4.40268C43.6881 4.40268 42.9293 4.51007 42.2993 4.72483C41.6693 4.9396 41.1539 5.21163 40.753 5.54094C40.3521 5.87025 40.0514 6.20671 39.851 6.55034C39.6649 6.87964 39.5718 7.17315 39.5718 7.43087C39.5575 7.55973 39.5933 7.67427 39.6792 7.7745C39.7651 7.8604 39.8868 7.90336 40.0443 7.90336H42.4497C42.6787 7.90336 42.8577 7.81029 42.9866 7.62416C43.1297 7.35212 43.323 7.13736 43.5664 6.97987C43.8242 6.82237 44.1535 6.74362 44.5544 6.74362C45.1271 6.74362 45.5208 6.87964 45.7356 7.15168C45.9503 7.42371 46.0577 7.81745 46.0577 8.33289V8.63356L43.3731 9.04161C41.9987 9.25638 40.8962 9.66443 40.0658 10.2658C39.2353 10.8528 38.8201 11.6546 38.8201 12.6711C38.8201 13.3011 38.9991 13.8667 39.357 14.3678C39.715 14.8689 40.1946 15.2698 40.796 15.5705ZM45.0054 13.294C44.6761 13.4658 44.3038 13.5517 43.8886 13.5517C43.6022 13.5517 43.3445 13.5087 43.1154 13.4228C42.8863 13.3226 42.7002 13.1866 42.557 13.0148C42.4139 12.843 42.3423 12.6353 42.3423 12.3919C42.3423 12.077 42.4926 11.8049 42.7933 11.5758C43.1083 11.3324 43.6022 11.1535 44.2752 11.0389L46.1007 10.7168V11.0174C46.1007 11.5902 46.0004 12.0698 45.8 12.4564C45.6139 12.8286 45.349 13.1078 45.0054 13.294Z" fill="white"/>
<path d="M52.347 15.6349C52.4472 15.7351 52.5761 15.7852 52.7336 15.7852H55.2678C55.4253 15.7852 55.5541 15.7351 55.6544 15.6349C55.7689 15.5347 55.8262 15.4058 55.8262 15.2483V9.27785C55.8262 8.79105 55.8978 8.40447 56.0409 8.11812C56.1984 7.81745 56.3989 7.60268 56.6423 7.47383C56.9 7.34497 57.1577 7.28054 57.4154 7.28054C57.7161 7.28054 57.9881 7.34497 58.2315 7.47383C58.4749 7.60268 58.6754 7.81745 58.8329 8.11812C58.9904 8.40447 59.0691 8.79821 59.0691 9.29933V15.2483C59.0691 15.4058 59.1192 15.5347 59.2195 15.6349C59.3197 15.7351 59.4485 15.7852 59.606 15.7852H62.0973C62.2548 15.7852 62.3837 15.7351 62.4839 15.6349C62.5841 15.5347 62.6342 15.4058 62.6342 15.2483V9.29933C62.6342 8.79821 62.7058 8.40447 62.849 8.11812C63.0065 7.81745 63.2069 7.60268 63.4503 7.47383C63.708 7.34497 63.9658 7.28054 64.2235 7.28054C64.5385 7.28054 64.8177 7.34497 65.0611 7.47383C65.3045 7.60268 65.4978 7.81745 65.6409 8.11812C65.7841 8.40447 65.8557 8.79821 65.8557 9.29933V15.2483C65.8557 15.4058 65.9058 15.5347 66.006 15.6349C66.1206 15.7351 66.2566 15.7852 66.4141 15.7852H68.9054C69.0485 15.7852 69.1702 15.7351 69.2705 15.6349C69.385 15.5347 69.4423 15.4058 69.4423 15.2483V9.14899C69.4423 8.04653 69.2633 7.15168 68.9054 6.46443C68.5474 5.76286 68.0678 5.24743 67.4664 4.91812C66.8794 4.5745 66.2136 4.40268 65.4691 4.40268C64.7389 4.40268 64.066 4.58166 63.4503 4.9396C62.8347 5.28322 62.3622 5.72707 62.0329 6.27114C61.4172 4.99687 60.2861 4.37405 58.6396 4.40268C57.938 4.417 57.3295 4.5745 56.8141 4.87517C56.2987 5.16152 55.8978 5.49799 55.6114 5.88456V5.15436C55.6114 4.99687 55.5613 4.86801 55.4611 4.76779C55.3608 4.66756 55.232 4.61745 55.0745 4.61745H52.7336C52.5761 4.61745 52.4472 4.66756 52.347 4.76779C52.2467 4.86801 52.1966 4.99687 52.1966 5.15436V15.2483C52.1966 15.4058 52.2467 15.5347 52.347 15.6349Z" fill="white"/>
<path fill-rule="evenodd" clip-rule="evenodd" d="M74.082 15.4201C74.9125 15.8067 75.929 16 77.1317 16C78.3487 16 79.3653 15.8067 80.1814 15.4201C81.0118 15.0336 81.6418 14.4823 82.0713 13.7664C82.5151 13.0362 82.7657 12.17 82.823 11.1678C82.8373 10.8814 82.8445 10.5593 82.8445 10.2013C82.8445 9.82908 82.8373 9.50693 82.823 9.2349C82.7657 8.21834 82.508 7.35212 82.0498 6.63624C81.5917 5.92036 80.9474 5.36913 80.1169 4.98255C79.3008 4.59597 78.3058 4.40268 77.1317 4.40268C75.972 4.40268 74.9769 4.59597 74.1465 4.98255C73.3304 5.36913 72.6932 5.92036 72.2351 6.63624C71.7769 7.35212 71.5192 8.21834 71.4619 9.2349C71.4476 9.50693 71.4404 9.82908 71.4404 10.2013C71.4404 10.5593 71.4476 10.8814 71.4619 11.1678C71.5192 12.17 71.7626 13.0362 72.1921 13.7664C72.6359 14.4823 73.2659 15.0336 74.082 15.4201ZM78.5277 12.8C78.2413 13.1866 77.776 13.3799 77.1317 13.3799C76.5017 13.3799 76.0364 13.1866 75.7357 12.8C75.4351 12.4134 75.2704 11.8336 75.2418 11.0604C75.2275 10.8456 75.2203 10.5593 75.2203 10.2013C75.2203 9.8434 75.2275 9.55705 75.2418 9.34228C75.2704 8.58344 75.4351 8.01074 75.7357 7.62416C76.0364 7.22327 76.5017 7.02282 77.1317 7.02282C77.776 7.02282 78.2413 7.22327 78.5277 7.62416C78.8283 8.01074 79.0002 8.58344 79.0431 9.34228C79.0574 9.55705 79.0646 9.8434 79.0646 10.2013C79.0646 10.5593 79.0574 10.8456 79.0431 11.0604C79.0002 11.8336 78.8283 12.4134 78.5277 12.8Z" fill="white"/>
<path d="M87.1688 15.6993C87.8274 15.8998 88.622 16 89.5527 16C90.6981 16 91.6717 15.8568 92.4735 15.5705C93.2753 15.2698 93.8766 14.8546 94.2775 14.3248C94.6927 13.7951 94.9003 13.1866 94.9003 12.4993C94.9003 11.9839 94.7786 11.4971 94.5352 11.0389C94.2918 10.5664 93.8766 10.1584 93.2896 9.81476C92.7026 9.45682 91.9151 9.1991 90.9272 9.04161C90.1254 8.88412 89.5312 8.74094 89.1446 8.61208C88.7724 8.48322 88.5218 8.34004 88.3929 8.18255C88.2784 8.02506 88.2211 7.85324 88.2211 7.66711C88.2211 7.39508 88.3285 7.17315 88.5433 7.00134C88.758 6.82953 89.0587 6.74362 89.4453 6.74362C89.7889 6.74362 90.0753 6.80089 90.3044 6.91544C90.5334 7.02998 90.7339 7.15884 90.9057 7.30201C91.0775 7.44519 91.2493 7.55973 91.4211 7.64564C91.4641 7.67427 91.5142 7.70291 91.5715 7.73154C91.6287 7.74586 91.686 7.75302 91.7433 7.75302H93.9768C94.1057 7.75302 94.2202 7.70291 94.3205 7.60268C94.4207 7.48814 94.4636 7.35928 94.4493 7.21611C94.435 6.95839 94.3205 6.67204 94.1057 6.35705C93.8909 6.04206 93.5688 5.73423 93.1393 5.43356C92.724 5.13289 92.2086 4.88948 91.5929 4.70336C90.9916 4.50291 90.2757 4.40268 89.4453 4.40268C88.4001 4.40268 87.5196 4.5745 86.8037 4.91812C86.0878 5.24743 85.5437 5.67696 85.1715 6.20671C84.7992 6.73646 84.6131 7.2877 84.6131 7.8604C84.6131 8.5047 84.7634 9.05593 85.0641 9.51409C85.3648 9.95794 85.7943 10.323 86.3527 10.6094C86.9111 10.8814 87.5625 11.1034 88.307 11.2752C89.0945 11.4183 89.6815 11.5615 90.0681 11.7047C90.469 11.8479 90.7339 11.9982 90.8627 12.1557C90.9916 12.2989 91.056 12.485 91.056 12.7141C91.056 13.0291 90.92 13.2653 90.648 13.4228C90.3759 13.5803 90.0395 13.6591 89.6386 13.6591C89.295 13.6591 89.0014 13.6018 88.758 13.4872C88.5146 13.3727 88.2999 13.2438 88.1137 13.1007C87.9276 12.9432 87.7415 12.8143 87.5554 12.7141C87.4981 12.6711 87.4551 12.6425 87.4265 12.6282C87.3979 12.6139 87.3621 12.6067 87.3191 12.6067H84.8708C84.7419 12.6067 84.6202 12.664 84.5057 12.7785C84.3912 12.8787 84.341 13.0076 84.3554 13.1651C84.3697 13.3942 84.4771 13.6734 84.6775 14.0027C84.878 14.3177 85.1786 14.6255 85.5795 14.9262C85.9947 15.2268 86.5245 15.4846 87.1688 15.6993Z" fill="white"/>
<path d="M96.9778 15.6349C97.0781 15.7351 97.2069 15.7852 97.3644 15.7852H99.8986C100.042 15.7852 100.164 15.7351 100.264 15.6349C100.378 15.5347 100.436 15.4058 100.436 15.2483V5.15436C100.436 4.99687 100.378 4.86801 100.264 4.76779C100.164 4.66756 100.042 4.61745 99.8986 4.61745H97.3644C97.2069 4.61745 97.0781 4.66756 96.9778 4.76779C96.8776 4.86801 96.8275 4.99687 96.8275 5.15436V15.2483C96.8275 15.4058 96.8776 15.5347 96.9778 15.6349Z" fill="white"/>
<path d="M96.9564 2.85637C97.0566 2.9566 97.1854 3.00671 97.3429 3.00671H99.8986C100.056 3.00671 100.185 2.9566 100.285 2.85637C100.4 2.75615 100.457 2.62729 100.457 2.4698V0.558388C100.457 0.400894 100.4 0.272035 100.285 0.171811C100.185 0.0572704 100.056 0 99.8986 0H97.3429C97.1854 0 97.0566 0.0572704 96.9564 0.171811C96.8561 0.272035 96.806 0.400894 96.806 0.558388V2.4698C96.806 2.62729 96.8561 2.75615 96.9564 2.85637Z" fill="white"/>
<path d="M6.04256 3.14762L6.4363 3.93509C6.48999 4.04471 6.63317 4.14986 6.75397 4.16999L7.46762 4.28856C7.92399 4.36462 8.03138 4.69572 7.70252 5.02234L7.14771 5.57715C7.05375 5.67111 7.00229 5.85232 7.03138 5.98207L7.19021 6.66887C7.31549 7.2125 7.0269 7.42279 6.54592 7.13867L5.87701 6.7427C5.75621 6.67111 5.5571 6.67111 5.43406 6.7427L4.76516 7.13867C4.28641 7.42279 3.99558 7.21026 4.12086 6.66887L4.2797 5.98207C4.30878 5.85232 4.25733 5.67111 4.16337 5.57715L3.60856 5.02234C3.28194 4.69572 3.38708 4.36462 3.84346 4.28856L4.5571 4.16999C4.67567 4.14986 4.81885 4.04471 4.87254 3.93509L5.26628 3.14762C5.48104 2.72033 5.83003 2.72033 6.04256 3.14762Z" fill="#6F38C5"/>
</svg>
