<svg width="25" height="24" viewBox="0 0 25 24" fill="none" xmlns="http://www.w3.org/2000/svg">
<path d="M22.3333 7.81007V16.1901C22.3333 19.4001 19.7333 22.0001 16.5233 22.0001H8.14334C4.93334 22.0001 2.33334 19.4001 2.33334 16.1901V7.81007C2.33334 5.32007 3.35334 3.51007 5.16334 2.63007C5.82334 2.31007 6.58334 2.81007 6.58334 3.54007V12.4201C6.58334 13.6101 7.04334 14.5601 7.87334 15.0401C8.71334 15.5101 9.77334 15.4101 10.8533 14.7601L12.1533 13.9801C12.2333 13.9401 12.4333 13.9401 12.4933 13.9701L13.8133 14.7601C14.5333 15.1901 15.1533 15.3301 15.6533 15.3301C16.1733 15.3301 16.5733 15.1701 16.8133 15.0301C17.6233 14.5601 18.0833 13.6101 18.0833 12.4201V3.54007C18.0833 2.81007 18.8533 2.31007 19.5033 2.63007C21.3133 3.51007 22.3333 5.32007 22.3333 7.81007Z" fill="#292D32"/>
<path d="M15.5833 2C16.1333 2 16.5833 2.45 16.5833 3V12.42C16.5833 13.06 16.3933 13.54 16.0633 13.73C15.7233 13.93 15.1833 13.83 14.5833 13.47L13.2633 12.68C12.7533 12.37 11.9133 12.37 11.4033 12.68L10.0833 13.47C9.48334 13.83 8.94334 13.92 8.60334 13.73C8.27334 13.54 8.08334 13.06 8.08334 12.42V3C8.08334 2.45 8.53334 2 9.08334 2H15.5833Z" fill="#292D32"/>
</svg>
