<svg width="25" height="24" viewBox="0 0 25 24" fill="none" xmlns="http://www.w3.org/2000/svg">
<path fill-rule="evenodd" clip-rule="evenodd" d="M3.42801 3.09467C4.76248 1.7602 6.75937 1.25 9.33334 1.25H15.3333C17.9073 1.25 19.9042 1.7602 21.2387 3.09467C22.5731 4.42914 23.0833 6.42603 23.0833 9V15C23.0833 17.574 22.5731 19.5709 21.2387 20.9053C19.9042 22.2398 17.9073 22.75 15.3333 22.75H9.33334C6.75937 22.75 4.76248 22.2398 3.42801 20.9053C2.09354 19.5709 1.58334 17.574 1.58334 15V9C1.58334 6.42603 2.09354 4.42914 3.42801 3.09467ZM4.48867 4.15533C3.57314 5.07086 3.08334 6.57397 3.08334 9V15C3.08334 17.426 3.57314 18.9291 4.48867 19.8447C5.4042 20.7602 6.90732 21.25 9.33334 21.25H15.3333C17.7594 21.25 19.2625 20.7602 20.178 19.8447C21.0935 18.9291 21.5833 17.426 21.5833 15V9C21.5833 6.57397 21.0935 5.07086 20.178 4.15533C19.2625 3.2398 17.7594 2.75 15.3333 2.75H9.33334C6.90732 2.75 5.4042 3.2398 4.48867 4.15533Z" fill="#0A0512"/>
<path fill-rule="evenodd" clip-rule="evenodd" d="M7.33334 1.68994C7.74756 1.68994 8.08334 2.02573 8.08334 2.43994V12.4199C8.08334 13.2429 8.37048 13.605 8.61129 13.7352C8.8616 13.8705 9.35224 13.9144 10.0892 13.4758C10.0893 13.4757 10.089 13.4759 10.0892 13.4758L11.4075 12.6868C11.4075 12.6868 11.4074 12.6869 11.4075 12.6868C11.6993 12.5118 12.0353 12.4449 12.3333 12.4449C12.6314 12.4449 12.9673 12.5117 13.2591 12.6867C13.2591 12.6868 13.259 12.6867 13.2591 12.6867L14.5798 13.4771C15.316 13.9197 15.8052 13.8748 16.0543 13.7396C16.2958 13.6084 16.5833 13.2434 16.5833 12.4199V2.43994C16.5833 2.02573 16.9191 1.68994 17.3333 1.68994C17.7476 1.68994 18.0833 2.02573 18.0833 2.43994V12.4199C18.0833 13.5665 17.6659 14.5714 16.7699 15.0578C15.8817 15.54 14.8011 15.3602 13.8075 14.7631C13.8073 14.763 13.8077 14.7632 13.8075 14.7631L12.4882 13.9735C12.4883 13.9736 12.484 13.971 12.4759 13.9678C12.4678 13.9646 12.4565 13.9608 12.4418 13.9572C12.4117 13.9498 12.3743 13.9449 12.3333 13.9449C12.2923 13.9449 12.2549 13.9498 12.2249 13.9572C12.2102 13.9608 12.1989 13.9646 12.1908 13.9678C12.1827 13.971 12.1791 13.9731 12.1792 13.9731L10.857 14.7644C9.86424 15.3555 8.78504 15.5343 7.8979 15.0547C7.00121 14.5699 6.58334 13.567 6.58334 12.4199V2.43994C6.58334 2.02573 6.91913 1.68994 7.33334 1.68994Z" fill="#0A0512"/>
<path fill-rule="evenodd" clip-rule="evenodd" d="M3.42801 3.09467C4.76248 1.7602 6.75937 1.25 9.33334 1.25H15.3333C17.9073 1.25 19.9042 1.7602 21.2387 3.09467C22.5731 4.42914 23.0833 6.42603 23.0833 9V15C23.0833 17.574 22.5731 19.5709 21.2387 20.9053C19.9042 22.2398 17.9073 22.75 15.3333 22.75H9.33334C6.75937 22.75 4.76248 22.2398 3.42801 20.9053C2.09354 19.5709 1.58334 17.574 1.58334 15V9C1.58334 6.42603 2.09354 4.42914 3.42801 3.09467ZM4.48867 4.15533C3.57314 5.07086 3.08334 6.57397 3.08334 9V15C3.08334 17.426 3.57314 18.9291 4.48867 19.8447C5.4042 20.7602 6.90732 21.25 9.33334 21.25H15.3333C17.7594 21.25 19.2625 20.7602 20.178 19.8447C21.0935 18.9291 21.5833 17.426 21.5833 15V9C21.5833 6.57397 21.0935 5.07086 20.178 4.15533C19.2625 3.2398 17.7594 2.75 15.3333 2.75H9.33334C6.90732 2.75 5.4042 3.2398 4.48867 4.15533Z" fill="#0A0512"/>
<path fill-rule="evenodd" clip-rule="evenodd" d="M7.33334 1.68994C7.74756 1.68994 8.08334 2.02573 8.08334 2.43994V12.4199C8.08334 13.2429 8.37048 13.605 8.61129 13.7352C8.8616 13.8705 9.35224 13.9144 10.0892 13.4758C10.0893 13.4757 10.089 13.4759 10.0892 13.4758L11.4075 12.6868C11.4075 12.6868 11.4074 12.6869 11.4075 12.6868C11.6993 12.5118 12.0353 12.4449 12.3333 12.4449C12.6314 12.4449 12.9673 12.5117 13.2591 12.6867C13.2591 12.6868 13.259 12.6867 13.2591 12.6867L14.5798 13.4771C15.316 13.9197 15.8052 13.8748 16.0543 13.7396C16.2958 13.6084 16.5833 13.2434 16.5833 12.4199V2.43994C16.5833 2.02573 16.9191 1.68994 17.3333 1.68994C17.7476 1.68994 18.0833 2.02573 18.0833 2.43994V12.4199C18.0833 13.5665 17.6659 14.5714 16.7699 15.0578C15.8817 15.54 14.8011 15.3602 13.8075 14.7631C13.8073 14.763 13.8077 14.7632 13.8075 14.7631L12.4882 13.9735C12.4883 13.9736 12.484 13.971 12.4759 13.9678C12.4678 13.9646 12.4565 13.9608 12.4418 13.9572C12.4117 13.9498 12.3743 13.9449 12.3333 13.9449C12.2923 13.9449 12.2549 13.9498 12.2249 13.9572C12.2102 13.9608 12.1989 13.9646 12.1908 13.9678C12.1827 13.971 12.1791 13.9731 12.1792 13.9731L10.857 14.7644C9.86424 15.3555 8.78504 15.5343 7.8979 15.0547C7.00121 14.5699 6.58334 13.567 6.58334 12.4199V2.43994C6.58334 2.02573 6.91913 1.68994 7.33334 1.68994Z" fill="#0A0512"/>
</svg>
