<svg width="16" height="16" viewBox="0 0 16 16" fill="none" xmlns="http://www.w3.org/2000/svg">
<path d="M10.7933 1.33337H5.20666C2.77999 1.33337 1.33333 2.78004 1.33333 5.20671V10.7867C1.33333 13.22 2.77999 14.6667 5.20666 14.6667H10.7867C13.2133 14.6667 14.66 13.22 14.66 10.7934V5.20671C14.6667 2.78004 13.22 1.33337 10.7933 1.33337ZM6.62666 8.84671C6.17333 9.52671 5.54666 10.08 4.81333 10.4467C4.74666 10.48 4.66666 10.5 4.59333 10.5C4.40666 10.5 4.23333 10.4 4.14666 10.2267C4.01999 9.98004 4.11999 9.68004 4.37333 9.55337C4.95333 9.26671 5.44666 8.82671 5.79999 8.29337C5.91999 8.11337 5.91999 7.88671 5.79999 7.70671C5.43999 7.17337 4.94666 6.73337 4.37333 6.44671C4.11999 6.32671 4.01999 6.02671 4.14666 5.77337C4.26666 5.52671 4.56666 5.42671 4.81333 5.55337C5.54666 5.92004 6.17333 6.47337 6.62666 7.15337C6.97333 7.66671 6.97333 8.33337 6.62666 8.84671ZM11.3333 10.5H8.66666C8.39333 10.5 8.16666 10.2734 8.16666 10C8.16666 9.72671 8.39333 9.50004 8.66666 9.50004H11.3333C11.6067 9.50004 11.8333 9.72671 11.8333 10C11.8333 10.2734 11.6067 10.5 11.3333 10.5Z" fill="white"/>
</svg>
