<svg width="16" height="16" viewBox="0 0 16 16" fill="none" xmlns="http://www.w3.org/2000/svg">
<path d="M10.7933 1.33337H5.20668C2.78001 1.33337 1.33334 2.78004 1.33334 5.20671V10.7867C1.33334 13.22 2.78001 14.6667 5.20668 14.6667H10.7867C13.2133 14.6667 14.66 13.22 14.66 10.7934V5.20671C14.6667 2.78004 13.22 1.33337 10.7933 1.33337ZM6.40001 10.8C6.40001 11.46 5.86001 12 5.20001 12C4.54001 12 4.00001 11.46 4.00001 10.8C4.00001 10.14 4.54001 9.60004 5.20001 9.60004H5.73334C6.10001 9.60004 6.40001 9.90004 6.40001 10.2667V10.8ZM6.40001 5.73337C6.40001 6.10004 6.10001 6.40004 5.73334 6.40004H5.20001C4.54001 6.40004 4.00001 5.86004 4.00001 5.20004C4.00001 4.54004 4.54001 4.00004 5.20001 4.00004C5.86001 4.00004 6.40001 4.54004 6.40001 5.20004V5.73337ZM9.43334 8.83337C9.43334 9.16004 9.16668 9.43337 8.83334 9.43337H7.16001C6.83334 9.43337 6.56001 9.16671 6.56001 8.83337V7.16004C6.56001 6.83337 6.82668 6.56004 7.16001 6.56004H8.83334C9.16001 6.56004 9.43334 6.82671 9.43334 7.16004V8.83337ZM10.8 12C10.14 12 9.60001 11.46 9.60001 10.8V10.2667C9.60001 9.90004 9.90001 9.60004 10.2667 9.60004H10.8C11.46 9.60004 12 10.14 12 10.8C12 11.46 11.46 12 10.8 12ZM10.8 6.40004H10.2667C9.90001 6.40004 9.60001 6.10004 9.60001 5.73337V5.20004C9.60001 4.54004 10.14 4.00004 10.8 4.00004C11.46 4.00004 12 4.54004 12 5.20004C12 5.86004 11.46 6.40004 10.8 6.40004Z" fill="white"/>
</svg>
