<svg width="20" height="20" viewBox="0 0 20 20" fill="none" xmlns="http://www.w3.org/2000/svg">
<path fill-rule="evenodd" clip-rule="evenodd" d="M10 7.64166C8.69517 7.64166 7.64166 8.69517 7.64166 10C7.64166 10.4253 7.75327 10.8221 7.95024 11.1659L11.1659 7.95024C10.8221 7.75327 10.4253 7.64166 10 7.64166ZM6.39166 10C6.39166 8.00482 8.00482 6.39166 10 6.39166C10.9982 6.39166 11.8967 6.79619 12.5503 7.44972C12.7943 7.6938 12.7943 8.08953 12.5503 8.3336L8.3336 12.5503C8.08953 12.7943 7.6938 12.7943 7.44972 12.5503C6.79619 11.8967 6.39166 10.9982 6.39166 10Z" fill="#6F38C5"/>
<path fill-rule="evenodd" clip-rule="evenodd" d="M1.88124 7.50581C3.87367 4.37384 6.79334 2.48334 9.99999 2.48334C11.8747 2.48334 13.6712 3.13634 15.2264 4.30937C15.5019 4.51723 15.5568 4.90913 15.349 5.1847C15.1411 5.46028 14.7492 5.51517 14.4736 5.30731C13.1121 4.28033 11.5753 3.73334 9.99999 3.73334C7.32345 3.73334 4.7599 5.30934 2.93567 8.17712L2.93515 8.17794C2.63966 8.64087 2.47083 9.30354 2.47083 10.0042C2.47083 10.7048 2.63966 11.3675 2.93515 11.8304L2.93544 11.8308C3.56358 12.8168 4.29092 13.6609 5.07418 14.3345C5.33589 14.5595 5.36559 14.9542 5.14052 15.2159C4.91545 15.4776 4.52084 15.5073 4.25913 15.2822C3.37573 14.5225 2.56974 13.5832 1.88121 12.5025C1.4269 11.7905 1.22083 10.8784 1.22083 10.0042C1.22083 9.12997 1.42691 8.21782 1.88124 7.50581Z" fill="#6F38C5"/>
<path fill-rule="evenodd" clip-rule="evenodd" d="M16.3166 6.12135C16.5856 5.90501 16.979 5.94767 17.1954 6.21664C17.5153 6.61436 17.8296 7.04174 18.1194 7.49847C18.5733 8.21034 18.7792 9.12205 18.7792 9.99586C18.7792 10.8701 18.5731 11.7822 18.1188 12.4942C16.1264 15.6262 13.2067 17.5167 10 17.5167C8.88626 17.5167 7.79572 17.2812 6.77417 16.851C6.45604 16.7171 6.30673 16.3506 6.44068 16.0325C6.57463 15.7144 6.94111 15.5651 7.25924 15.699C8.13768 16.0689 9.06382 16.2667 10 16.2667C12.6766 16.2667 15.2401 14.6907 17.0644 11.8229L17.0649 11.8221C17.3604 11.3592 17.5292 10.6965 17.5292 9.99586C17.5292 9.29523 17.3604 8.63256 17.0649 8.16963L17.064 8.16825C16.8038 7.75832 16.5181 7.36903 16.2214 7.00008C16.005 6.73112 16.0477 6.33769 16.3166 6.12135Z" fill="#6F38C5"/>
<path fill-rule="evenodd" clip-rule="evenodd" d="M13.0383 9.96872C13.3778 10.0313 13.6022 10.3572 13.5396 10.6967C13.276 12.1266 12.1182 13.2843 10.6883 13.548C10.3489 13.6106 10.023 13.3862 9.96036 13.0467C9.89777 12.7072 10.1222 12.3813 10.4617 12.3187C11.3818 12.1491 12.1407 11.3901 12.3104 10.47C12.373 10.1306 12.6989 9.90613 13.0383 9.96872Z" fill="#6F38C5"/>
<path fill-rule="evenodd" clip-rule="evenodd" d="M8.33363 11.6664C8.57771 11.9105 8.57771 12.3062 8.33363 12.5503L2.10863 18.7753C1.86455 19.0194 1.46882 19.0194 1.22475 18.7753C0.980668 18.5312 0.980668 18.1355 1.22475 17.8914L7.44975 11.6664C7.69382 11.4223 8.08955 11.4223 8.33363 11.6664Z" fill="#6F38C5"/>
<path fill-rule="evenodd" clip-rule="evenodd" d="M18.7753 1.22475C19.0194 1.46882 19.0194 1.86455 18.7753 2.10863L12.5503 8.33363C12.3062 8.57771 11.9105 8.57771 11.6664 8.33363C11.4223 8.08955 11.4223 7.69382 11.6664 7.44975L17.8914 1.22475C18.1355 0.980668 18.5312 0.980668 18.7753 1.22475Z" fill="#6F38C5"/>
</svg>
