<svg width="16" height="16" viewBox="0 0 16 16" fill="none" xmlns="http://www.w3.org/2000/svg">
<path d="M10.7933 1.33337H5.20668C2.78001 1.33337 1.33334 2.78004 1.33334 5.20671V10.7867C1.33334 13.22 2.78001 14.6667 5.20668 14.6667H10.7867C13.2133 14.6667 14.66 13.22 14.66 10.7934V5.20671C14.6667 2.78004 13.22 1.33337 10.7933 1.33337ZM10.94 6.55337C10.5333 7.71337 9.44001 8.49337 8.21334 8.49337C8.20668 8.49337 8.20668 8.49337 8.20001 8.49337L6.82668 8.48671C6.82668 8.48671 6.82668 8.48671 6.82001 8.48671C6.31334 8.48671 5.87334 8.82671 5.74001 9.31337C6.33334 9.50004 6.76668 10.0534 6.76668 10.7067C6.76668 11.5134 6.10668 12.1734 5.30001 12.1734C4.49334 12.1734 3.83334 11.5134 3.83334 10.7067C3.83334 10.1134 4.19334 9.60004 4.70001 9.37337V6.46671C4.19334 6.26671 3.83334 5.77337 3.83334 5.20004C3.83334 4.44671 4.44668 3.83337 5.20001 3.83337C5.95334 3.83337 6.56668 4.44671 6.56668 5.20004C6.56668 5.78004 6.20668 6.26671 5.70001 6.46671V7.81337C6.02668 7.60671 6.41334 7.48671 6.82001 7.48671H6.82668L8.20001 7.49337C8.98668 7.52004 9.68668 7.01337 9.96668 6.28004C9.64001 6.02671 9.42668 5.64004 9.42668 5.20004C9.42668 4.44671 10.04 3.83337 10.7933 3.83337C11.5467 3.83337 12.16 4.44671 12.16 5.20004C12.1667 5.90671 11.6267 6.48004 10.94 6.55337Z" fill="white"/>
</svg>
