<svg width="24" height="24" viewBox="0 0 24 24" fill="none" xmlns="http://www.w3.org/2000/svg">
<path fill-rule="evenodd" clip-rule="evenodd" d="M12 14.25C12.4142 14.25 12.75 14.5858 12.75 15V18C12.75 18.4142 12.4142 18.75 12 18.75C11.5858 18.75 11.25 18.4142 11.25 18V15C11.25 14.5858 11.5858 14.25 12 14.25Z" fill="#292D32"/>
<path fill-rule="evenodd" clip-rule="evenodd" d="M14.399 2.24467C14.3993 2.2449 14.3996 2.24513 14.3998 2.24536L21.3304 7.78578C21.844 8.19936 22.2289 8.80505 22.4645 9.42261C22.7002 10.0404 22.8166 10.7489 22.7102 11.4008L22.7097 11.4035L21.3797 19.3635L21.3794 19.3658C21.0782 21.135 19.3969 22.5599 17.6 22.5599H6.4C4.59379 22.5599 2.92144 21.1456 2.62048 19.3649L1.29103 11.4081C1.29089 11.4073 1.29074 11.4065 1.2906 11.4056C1.17778 10.7518 1.29191 10.0415 1.52801 9.42261C1.76427 8.80335 2.15258 8.19722 2.67208 7.78381C2.67249 7.78348 2.6729 7.78316 2.67331 7.78283L9.6008 2.23483C10.9362 1.16433 13.0561 1.16609 14.399 2.24467ZM13.4601 3.41453C12.6631 2.7739 11.3236 2.77609 10.5392 3.40506L3.60668 8.95707C3.3468 9.16364 3.09554 9.52203 2.92948 9.95729C2.76338 10.3926 2.7125 10.8263 2.76896 11.1518L2.76975 11.1563L4.09951 19.115C4.09954 19.1151 4.09948 19.1148 4.09951 19.115C4.27883 20.1741 5.32639 21.0599 6.4 21.0599H17.6C18.6627 21.0599 19.721 20.1655 19.9004 19.1152C19.9005 19.1148 19.9006 19.1145 19.9006 19.1141L21.2298 11.1591C21.2299 11.1586 21.2299 11.1582 21.23 11.1577C21.2832 10.8298 21.2296 10.3939 21.063 9.95729C20.8963 9.52035 20.6466 9.16137 20.3905 8.95483C20.3902 8.95459 20.3899 8.95435 20.3896 8.95412L13.4617 3.41576L13.4601 3.41453Z" fill="#292D32"/>
</svg>
