<svg width="24" height="24" viewBox="0 0 24 24" fill="none" xmlns="http://www.w3.org/2000/svg">
<path fill-rule="evenodd" clip-rule="evenodd" d="M12 2.75C9.95531 2.75 8.31 4.40311 8.31 6.44C8.31 8.42302 9.85907 10.032 11.8149 10.1189C11.9335 10.1106 12.0588 10.1102 12.177 10.1188C14.1309 10.031 15.6809 8.42308 15.69 6.43847C15.6892 4.40339 14.0353 2.75 12 2.75ZM6.81 6.44C6.81 3.57689 9.12468 1.25 12 1.25C14.8642 1.25 17.19 3.57579 17.19 6.44L17.19 6.44313C17.1783 9.24352 14.971 11.5259 12.1852 11.6196C12.1519 11.6207 12.1185 11.6196 12.0854 11.6163C12.0371 11.6115 11.9651 11.6108 11.8979 11.6169C11.867 11.6197 11.8359 11.6206 11.8048 11.6196C9.01959 11.526 6.81 9.24337 6.81 6.44Z" fill="#0A0512"/>
<path fill-rule="evenodd" clip-rule="evenodd" d="M12.1725 12.4375C14.1007 12.4375 16.067 12.9214 17.5866 13.9363C18.9524 14.8454 19.735 16.1198 19.735 17.4913C19.735 18.8626 18.9526 20.1393 17.5872 21.0532L17.5871 21.0533C16.0629 22.0732 14.0941 22.56 12.165 22.56C10.2363 22.56 8.26791 22.0734 6.74382 21.0539C5.37771 20.1448 4.595 18.8703 4.595 17.4987C4.595 16.1274 5.37744 14.8507 6.74279 13.9368L6.74554 13.9349L6.74555 13.9349C8.27398 12.9215 10.2441 12.4375 12.1725 12.4375ZM7.57584 15.1842C6.52219 15.89 6.095 16.7429 6.095 17.4987C6.095 18.2544 6.52201 19.1047 7.57543 19.8056L7.57707 19.8067C8.80286 20.6268 10.4641 21.06 12.165 21.06C13.8659 21.06 15.527 20.6269 16.7528 19.8068C17.8074 19.1007 18.235 18.2474 18.235 17.4913C18.235 16.7356 17.808 15.8853 16.7546 15.1844L16.7535 15.1837C15.533 14.3686 13.8743 13.9375 12.1725 13.9375C10.4716 13.9375 8.80727 14.3682 7.57584 15.1842Z" fill="#0A0512"/>
</svg>
