<svg width="25" height="24" viewBox="0 0 25 24" fill="none" xmlns="http://www.w3.org/2000/svg">
<path d="M12.1667 21C17.4134 21 21.6667 16.7467 21.6667 11.5C21.6667 6.25329 17.4134 2 12.1667 2C6.91998 2 2.66669 6.25329 2.66669 11.5C2.66669 16.7467 6.91998 21 12.1667 21Z" fill="#292D32"/>
<path d="M21.9667 22.0001C21.7867 22.0001 21.6067 21.9301 21.4767 21.8001L19.6167 19.9401C19.3467 19.6701 19.3467 19.2301 19.6167 18.9501C19.8867 18.6801 20.3267 18.6801 20.6067 18.9501L22.4667 20.8101C22.7367 21.0801 22.7367 21.5201 22.4667 21.8001C22.3267 21.9301 22.1467 22.0001 21.9667 22.0001Z" fill="#292D32"/>
</svg>
