<svg width="25" height="24" viewBox="0 0 25 24" fill="none" xmlns="http://www.w3.org/2000/svg">
<path fill-rule="evenodd" clip-rule="evenodd" d="M12.1667 2.75C7.3342 2.75 3.41669 6.66751 3.41669 11.5C3.41669 16.3325 7.3342 20.25 12.1667 20.25C16.9992 20.25 20.9167 16.3325 20.9167 11.5C20.9167 6.66751 16.9992 2.75 12.1667 2.75ZM1.91669 11.5C1.91669 5.83908 6.50577 1.25 12.1667 1.25C17.8276 1.25 22.4167 5.83908 22.4167 11.5C22.4167 17.1609 17.8276 21.75 12.1667 21.75C6.50577 21.75 1.91669 17.1609 1.91669 11.5Z" fill="#0A0512"/>
<path fill-rule="evenodd" clip-rule="evenodd" d="M20.1364 19.4697C20.4293 19.1768 20.9041 19.1768 21.197 19.4697L23.197 21.4697C23.4899 21.7626 23.4899 22.2374 23.197 22.5303C22.9041 22.8232 22.4293 22.8232 22.1364 22.5303L20.1364 20.5303C19.8435 20.2374 19.8435 19.7626 20.1364 19.4697Z" fill="#0A0512"/>
</svg>
