<svg width="20" height="20" viewBox="0 0 20 20" fill="none" xmlns="http://www.w3.org/2000/svg">
<path d="M4.99998 10.8333C2.69998 10.8333 0.833313 12.6916 0.833313 14.9999C0.833313 17.3083 2.69998 19.1666 4.99998 19.1666C7.29998 19.1666 9.16665 17.2999 9.16665 14.9999C9.16665 12.6999 7.30831 10.8333 4.99998 10.8333ZM3.29998 13.2999H4.99998C5.31665 13.2999 5.56665 13.5583 5.56665 13.8666C5.56665 14.1749 5.31665 14.4333 4.99998 14.4333H3.29998C2.98331 14.4333 2.73331 14.1749 2.73331 13.8666C2.73331 13.5583 2.98331 13.2999 3.29998 13.2999ZM6.69998 16.6999H3.29998C2.98331 16.6999 2.73331 16.4416 2.73331 16.1333C2.73331 15.8249 2.99165 15.5666 3.29998 15.5666H6.70831C7.02498 15.5666 7.27498 15.8249 7.27498 16.1333C7.27498 16.4416 7.01665 16.6999 6.69998 16.6999Z" fill="white"/>
<path d="M14.1666 2.5H5.83329C3.33329 2.5 1.66663 3.75 1.66663 6.66667V9.28333C1.66663 9.89167 2.29163 10.275 2.84996 10.0333C3.76663 9.63333 4.80829 9.48333 5.89996 9.65833C8.08329 10.0167 9.86663 11.7417 10.3083 13.9083C10.4333 14.5417 10.45 15.1583 10.3666 15.75C10.3 16.2417 10.7 16.675 11.1916 16.675H14.1666C16.6666 16.675 18.3333 15.425 18.3333 12.5083V6.66667C18.3333 3.75 16.6666 2.5 14.1666 2.5ZM14.5583 7.15833L11.95 9.24167C11.4 9.68333 10.7 9.9 9.99996 9.9C9.29996 9.9 8.59163 9.68333 8.04996 9.24167L5.44163 7.15833C5.17496 6.94167 5.13329 6.54167 5.34163 6.275C5.55829 6.00833 5.94996 5.95833 6.21663 6.175L8.82496 8.25833C9.45829 8.76667 10.5333 8.76667 11.1666 8.25833L13.775 6.175C14.0416 5.95833 14.4416 6 14.65 6.275C14.8666 6.54167 14.825 6.94167 14.5583 7.15833Z" fill="white"/>
</svg>
